<svg width="44" height="44" viewBox="0 0 44 44" fill="none" xmlns="http://www.w3.org/2000/svg">
<circle cx="22" cy="22" r="22" fill="#FF6600"/>
<g clip-path="url(#clip0_2_929)">
<path d="M22.8582 21.9395L30.8254 29.9067C31.0468 30.1281 31.0468 30.4867 30.8254 30.708C30.7149 30.8188 30.5698 30.8739 30.4249 30.8739C30.2798 30.8739 30.135 30.8188 30.0244 30.708L21.9973 22.6808L13.9701 30.708C13.8593 30.8188 13.7145 30.8739 13.5696 30.8739C13.4248 30.8739 13.2797 30.8188 13.1691 30.708C12.9478 30.4867 12.9478 30.1281 13.1691 29.9067L21.1361 21.9395L13.1638 13.9666C12.9424 13.7452 12.9424 13.3867 13.1638 13.1653C13.3851 12.9442 13.7437 12.9442 13.9648 13.1653L21.997 21.1981L30.0301 13.1656C30.2514 12.9445 30.6097 12.9445 30.8311 13.1656C31.0524 13.3869 31.0524 13.7455 30.8311 13.9669L22.8582 21.9395Z" fill="white"/>
</g>
<defs>
<clipPath id="clip0_2_929">
<rect width="18" height="18" fill="white" transform="matrix(-1 0 0 1 31 13)"/>
</clipPath>
</defs>
</svg>
